<?xml version="1.0" encoding="UTF-8"?>
<svg id="Layer_1" data-name="Layer 1" xmlns="http://www.w3.org/2000/svg" viewBox="0 0 256 195.4">
  <g id="LOGO">
    <g id="Logo">
      <polygon points="256 190.9 256 195.4 190.7 195.4 179.8 172.8 223.7 172.8 215.7 156.1 204.9 133.5 150.9 20.7 140.8 41.8 140.8 41.9 129 66.5 129 66.5 96.9 133.5 86.1 156.1 62.4 156.1 73.3 133.5 117.1 41.9 117.1 41.8 129 17.2 137.2 0 164.6 0 228.5 133.5 239.4 156.1 247.3 172.8 256 190.9" style="fill: #fff;"/>
      <polygon points="42.5 156.1 34.5 172.8 78.1 172.8 67.2 195.4 0 195.4 10.8 172.8 18.8 156.1 29.7 133.5 93.6 0 117.2 0 107.2 21 53.3 133.5 42.5 156.1" style="fill: #fff;"/>
      <rect x="137.9" y="124.5" width="21.3" height="21.3" rx=".9" ry=".9" style="fill: #fff;"/>
      <rect x="137.9" y="87.1" width="21.3" height="21.3" rx=".9" ry=".9" style="fill: #fff;"/>
    </g>
  </g>
</svg>